<svg width="279" height="279" viewBox="0 0 279 279" fill="none" xmlns="http://www.w3.org/2000/svg">
<path d="M231.939 163.855L231.428 165.329C230.72 165.321 230.058 165.447 229.443 165.708C228.019 166.299 227.022 167.418 226.451 169.066C225.959 170.487 225.884 171.681 226.227 172.646C226.565 173.626 227.187 174.274 228.095 174.588C228.336 174.672 228.566 174.717 228.784 174.725C228.996 174.748 229.216 174.722 229.445 174.649C229.673 174.576 229.869 174.5 230.032 174.421C230.205 174.362 230.404 174.228 230.629 174.018C230.869 173.813 231.053 173.648 231.181 173.523C231.304 173.413 231.486 173.206 231.727 172.9C231.984 172.599 232.161 172.381 232.258 172.246C232.356 172.11 232.536 171.859 232.798 171.493C233.076 171.132 233.261 170.891 233.353 170.771C233.729 170.224 234.063 169.772 234.356 169.416C234.648 169.06 234.999 168.682 235.409 168.282C235.833 167.888 236.242 167.589 236.634 167.386C237.02 167.198 237.467 167.082 237.974 167.037C238.48 166.992 238.998 167.062 239.527 167.245C240.706 167.653 241.547 168.503 242.048 169.794C242.549 171.085 242.517 172.547 241.951 174.18C241.208 176.327 239.931 177.739 238.122 178.416C237.344 178.706 236.528 178.813 235.674 178.737L236.185 177.263C236.771 177.28 237.334 177.17 237.874 176.933C239.135 176.371 240.041 175.296 240.59 173.709C241.025 172.454 241.075 171.379 240.742 170.485C240.423 169.596 239.848 169.007 239.017 168.719C237.973 168.358 236.906 168.775 235.814 169.972C235.44 170.367 234.775 171.238 233.818 172.583C233.407 173.134 233.06 173.573 232.778 173.899C232.506 174.245 232.147 174.62 231.702 175.025C231.272 175.435 230.867 175.726 230.485 175.899C230.099 176.086 229.652 176.203 229.145 176.247C228.634 176.307 228.113 176.245 227.584 176.062C226.329 175.628 225.442 174.719 224.921 173.337C224.411 171.975 224.467 170.394 225.09 168.595C225.876 166.327 227.249 164.855 229.21 164.18C230.089 163.892 230.998 163.783 231.939 163.855Z" fill="white"/>
<path d="M220.671 185.066C222.98 184.611 225.205 185.086 227.344 186.491C229.484 187.896 230.804 189.749 231.304 192.048C231.803 194.348 231.377 196.528 230.025 198.587C228.549 200.834 226.514 202.111 223.92 202.417C222.79 202.536 221.66 202.435 220.53 202.115L221.386 200.811C222.271 201.009 223.157 201.045 224.043 200.919C226.06 200.616 227.653 199.576 228.821 197.797C229.954 196.072 230.31 194.276 229.888 192.411C229.467 190.546 228.334 189.007 226.488 187.795C224.643 186.583 222.78 186.154 220.901 186.509C219.022 186.864 217.516 187.904 216.383 189.629C215.188 191.448 214.896 193.381 215.505 195.427C215.768 196.308 216.202 197.148 216.807 197.947L215.951 199.251C215.154 198.307 214.568 197.261 214.191 196.115C213.339 193.564 213.669 191.139 215.179 188.839C216.532 186.779 218.362 185.522 220.671 185.066Z" fill="white"/>
<path d="M205.115 202.502L216.535 214.824L208.174 222.573L207.195 221.517L214.412 214.828L210.252 210.339L204.355 215.805L203.376 214.749L209.273 209.283L204.95 204.619L197.733 211.308L196.754 210.252L205.115 202.502Z" fill="white"/>
<path d="M190.078 215.249L198.367 229.862L193.774 232.467C191.589 233.707 189.399 234.029 187.204 233.435C185.003 232.862 183.307 231.525 182.115 229.423C180.923 227.322 180.642 225.173 181.272 222.976C181.896 220.801 183.301 219.094 185.486 217.854L190.078 215.249ZM189.432 217.271L186.196 219.107C184.373 220.141 183.211 221.545 182.709 223.32C182.207 225.094 182.461 226.872 183.472 228.654C184.482 230.435 185.878 231.566 187.658 232.046C189.439 232.526 191.241 232.249 193.064 231.215L196.3 229.379L189.432 217.271Z" fill="white"/>
<path d="M171.59 231.439L174.389 241.621L172.885 242.035L170.086 231.852C169.641 230.233 168.871 229.092 167.776 228.43C166.686 227.784 165.408 227.663 163.942 228.066C162.477 228.469 161.44 229.226 160.834 230.339C160.231 231.467 160.153 232.841 160.598 234.461L163.397 244.643L161.893 245.057L159.094 234.874C158.555 232.915 158.701 231.183 159.532 229.676C160.351 228.19 161.694 227.19 163.561 226.677C165.427 226.164 167.1 226.335 168.58 227.189C170.048 228.063 171.051 229.48 171.59 231.439Z" fill="white"/>
<path d="M147.648 230.258L148.356 247.043L146.797 247.109L146.15 231.762L137.038 232.147L136.977 230.708L147.648 230.258Z" fill="white"/>
<path d="M128.923 230.148L126.117 246.712L114.877 244.808L115.117 243.388L124.819 245.032L125.841 238.998L117.914 237.655L118.155 236.235L126.082 237.578L127.144 231.307L117.442 229.664L117.683 228.244L128.923 230.148Z" fill="white"/>
<path d="M96.3101 222.547C96.8615 224.835 96.4798 227.077 95.1652 229.274C93.8505 231.471 92.0548 232.867 89.778 233.462C87.5011 234.057 85.3056 233.722 83.1913 232.457C80.8848 231.076 79.5243 229.097 79.1098 226.518C78.9439 225.393 78.9975 224.26 79.2707 223.118L80.6092 223.919C80.4484 224.811 80.4493 225.697 80.6122 226.578C80.9986 228.58 82.1048 230.128 83.9308 231.221C85.7018 232.281 87.5104 232.562 89.3566 232.063C91.2027 231.564 92.6927 230.367 93.8266 228.473C94.9605 226.578 95.311 224.7 94.8781 222.837C94.4452 220.974 93.3432 219.513 91.5722 218.453C89.705 217.335 87.762 217.124 85.7433 217.817C84.8738 218.117 84.0525 218.586 83.2794 219.224L81.9408 218.423C82.8508 217.587 83.8709 216.958 85.0009 216.534C87.5134 215.576 89.9503 215.804 92.3117 217.217C94.426 218.483 95.7588 220.259 96.3101 222.547Z" fill="white"/>
<path d="M79.3024 208.897L64.2231 217.533L60.01 213.261L68.854 198.303L69.9494 199.413L67.0303 204.315L73.2656 210.637L78.207 207.787L79.3024 208.897ZM71.9875 211.392L66.2578 205.582L61.8779 213.104L64.4058 215.667L71.9875 211.392Z" fill="white"/>
<path d="M63.8209 191.544L49.5666 200.435L48.7409 199.111L61.7734 190.982L56.9467 183.244L58.1685 182.482L63.8209 191.544Z" fill="white"/>
<path d="M54.7069 175.183L38.9435 180.993L38.404 179.529L52.8163 174.218L49.6624 165.66L51.0135 165.162L54.7069 175.183Z" fill="white"/>
<path d="M34.945 147.451L33.7463 147.507L33.6132 144.63L30.7363 144.763L30.6808 143.564L33.5577 143.431L33.4246 140.554L34.6234 140.499L34.7398 143.016L37.1795 141.221L37.8288 142.273L35.3836 143.947L37.973 145.389L37.4235 146.496L34.8286 144.934L34.945 147.451Z" fill="white"/>
<path d="M34.8506 131.735L33.6571 131.61L33.9576 128.746L31.0933 128.445L31.2185 127.252L34.0828 127.552L34.3833 124.688L35.5767 124.813L35.3138 127.319L37.9953 125.911L38.4794 127.048L35.8104 128.337L38.1539 130.151L37.4445 131.163L35.1135 129.229L34.8506 131.735Z" fill="white"/>
<path d="M48.5371 105.948L49.1762 104.525C49.881 104.596 50.5514 104.528 51.1874 104.323C52.6579 103.861 53.7504 102.835 54.465 101.244C55.0812 99.8717 55.2613 98.6897 55.0053 97.6977C54.7559 96.6911 54.1933 95.9911 53.3176 95.5978C53.084 95.4929 52.8593 95.427 52.6433 95.4002C52.4339 95.3587 52.2122 95.3644 51.978 95.4171C51.7439 95.4697 51.5422 95.5282 51.373 95.5926C51.1957 95.6357 50.9857 95.7519 50.7429 95.941C50.4855 96.1235 50.2875 96.2714 50.149 96.3846C50.017 96.4832 49.8172 96.6741 49.5497 96.9573C49.2676 97.234 49.0718 97.4355 48.9625 97.5618C48.8531 97.6881 48.6516 97.922 48.3578 98.2636C48.0494 98.5987 47.8439 98.8221 47.7411 98.9338C47.3183 99.4455 46.9454 99.8656 46.6225 100.194C46.2995 100.523 45.9164 100.868 45.4731 101.23C45.0151 101.586 44.582 101.847 44.1736 102.014C43.7717 102.167 43.3165 102.243 42.808 102.243C42.2995 102.243 41.7899 102.128 41.279 101.898C40.1406 101.387 39.3791 100.466 38.9944 99.1356C38.6098 97.8052 38.7715 96.3519 39.4795 94.7756C40.4104 92.7031 41.807 91.4097 43.6691 90.8956C44.4693 90.6762 45.2914 90.6421 46.1356 90.7932L45.4964 92.2163C44.9135 92.1474 44.343 92.2068 43.7851 92.3947C42.4788 92.8428 41.4814 93.8331 40.7931 95.3656C40.2489 96.577 40.1034 97.643 40.3564 98.5635C40.5949 99.4774 41.1155 100.115 41.9182 100.475C42.9253 100.928 44.0256 100.606 45.2191 99.5111C45.6267 99.1504 46.3666 98.3427 47.4389 97.0879C47.8974 96.5747 48.2816 96.1685 48.5914 95.8691C48.8932 95.5487 49.2837 95.2066 49.7627 94.843C50.2272 94.4728 50.6571 94.2186 51.0524 94.0805C51.4543 93.9277 51.9095 93.8515 52.4179 93.8519C52.933 93.8377 53.4459 93.9453 53.9568 94.1748C55.1682 94.7189 55.9717 95.7025 56.3673 97.1256C56.755 98.5275 56.5587 100.097 55.7785 101.834C54.7952 104.023 53.2969 105.367 51.2837 105.866C50.3829 106.075 49.4673 106.102 48.5371 105.948Z" fill="white"/>
<path d="M61.6406 85.8181C59.3004 86.067 57.1269 85.3967 55.12 83.8073C53.1132 82.218 51.9628 80.2558 51.669 77.9209C51.3752 75.5859 51.9932 73.4526 53.5229 71.521C55.1918 69.4138 57.3317 68.3226 59.9426 68.2473C61.0794 68.2292 62.1961 68.4299 63.2927 68.8493L62.3241 70.0723C61.4607 69.7966 60.5818 69.6822 59.6875 69.7291C57.6515 69.8516 55.973 70.7469 54.6518 72.4151C53.3704 74.0331 52.8567 75.7898 53.1109 77.6851C53.3651 79.5805 54.3577 81.2136 56.0886 82.5844C57.8195 83.9553 59.6365 84.5473 61.5397 84.3606C63.4429 84.1738 65.0352 83.2714 66.3166 81.6534C67.6676 79.9476 68.1306 78.0487 67.7055 75.9568C67.5211 75.0556 67.1633 74.1803 66.6318 73.3308L67.6004 72.1079C68.31 73.1189 68.8014 74.2122 69.0745 75.3878C69.6971 78.0035 69.1541 80.39 67.4455 82.5474C65.9157 84.479 63.9807 85.5692 61.6406 85.8181Z" fill="white"/>
<path d="M78.6824 69.8311L68.3995 56.5457L77.4146 49.568L78.296 50.7067L70.5145 56.7296L74.2605 61.5693L80.6185 56.6482L81.4999 57.7869L75.1419 62.708L79.0347 67.7375L86.8161 61.7146L87.6975 62.8534L78.6824 69.8311Z" fill="white"/>
<path d="M94.7898 58.468L87.8295 43.1777L92.635 40.9901C94.9213 39.9494 97.1313 39.8224 99.2649 40.6091C101.407 41.3746 102.978 42.8568 103.979 45.0557C104.98 47.2546 105.069 49.4202 104.247 51.5526C103.432 53.6638 101.882 55.2397 99.5953 56.2805L94.7898 58.468ZM95.613 56.5111L98.9987 54.9699C100.906 54.1015 102.189 52.8057 102.846 51.0826C103.503 49.3595 103.407 47.566 102.559 45.702C101.71 43.8381 100.421 42.5881 98.6897 41.9521C96.9586 41.3161 95.1393 41.4324 93.2316 42.3007L89.8459 43.8419L95.613 56.5111Z" fill="white"/>
<path d="M114.64 43.9799L112.755 33.5896L114.29 33.3111L116.175 43.7014C116.475 45.3544 117.141 46.5589 118.173 47.3148C119.201 48.0551 120.463 48.2895 121.959 48.0181C123.455 47.7467 124.554 47.0837 125.257 46.0293C125.957 44.959 126.157 43.5974 125.857 41.9444L123.972 31.5541L125.507 31.2756L127.392 41.6659C127.755 43.6652 127.456 45.3781 126.495 46.8046C125.547 48.2125 124.121 49.0893 122.216 49.4349C120.311 49.7806 118.66 49.4623 117.262 48.4802C115.877 47.4794 115.003 45.9793 114.64 43.9799Z" fill="white"/>
<path d="M138.383 47.2807L139.166 30.499L140.724 30.5717L140.008 45.915L149.118 46.3399L149.051 47.7784L138.383 47.2807Z" fill="white"/>
<path d="M157.026 49.0491L161.289 32.7991L172.316 35.6922L171.951 37.085L162.433 34.5878L160.88 40.5075L168.656 42.5479L168.291 43.9407L160.514 41.9004L158.9 48.0521L168.418 50.5493L168.053 51.9422L157.026 49.0491Z" fill="white"/>
<path d="M188.835 59.5121C188.489 57.1844 189.068 54.9848 190.572 52.9134C192.076 50.8419 193.989 49.6107 196.309 49.2196C198.63 48.8286 200.787 49.357 202.781 50.8048C204.956 52.3842 206.135 54.4767 206.32 57.0822C206.385 58.2173 206.231 59.3414 205.858 60.4545L204.596 59.5379C204.835 58.6637 204.913 57.7808 204.828 56.8891C204.621 54.8601 203.657 53.2204 201.935 51.97C200.265 50.7572 198.488 50.3174 196.605 50.6504C194.722 50.9835 193.132 52.0434 191.834 53.83C190.537 55.6166 190.021 57.4568 190.287 59.3505C190.553 61.2442 191.521 62.7975 193.191 64.0103C194.952 65.2889 196.869 65.6722 198.941 65.1601C199.834 64.9383 200.693 64.5442 201.52 63.9778L202.782 64.8945C201.802 65.6457 200.73 66.1823 199.567 66.5042C196.979 67.2354 194.572 66.7925 192.345 65.1755C190.351 63.7276 189.181 61.8399 188.835 59.5121Z" fill="white"/>
<path d="M204.566 74.617L220.352 67.3526L224.169 71.9814L214.034 86.0962L213.041 84.8927L216.384 80.2695L210.733 73.419L205.559 75.8204L204.566 74.617ZM212.073 72.7805L217.265 79.0756L222.295 71.9719L220.004 69.1946L212.073 72.7805Z" fill="white"/>
<path d="M218.449 93.2744L233.436 85.6819L234.141 87.0735L220.439 94.0152L224.56 102.151L223.276 102.802L218.449 93.2744Z" fill="white"/>
<path d="M226.076 110.377L242.293 105.988L242.7 107.494L227.874 111.507L230.257 120.31L228.867 120.686L226.076 110.377Z" fill="white"/>
<path d="M242.532 126.301L243.728 126.197L243.977 129.066L246.846 128.817L246.95 130.012L244.081 130.262L244.33 133.131L243.135 133.235L242.917 130.724L240.552 132.616L239.86 131.592L242.236 129.82L239.59 128.484L240.095 127.356L242.751 128.811L242.532 126.301Z" fill="white"/>
<path d="M243.262 142L244.459 142.077L244.275 144.951L247.149 145.136L247.072 146.333L244.198 146.149L244.013 149.023L242.816 148.946L242.977 146.431L240.355 147.946L239.825 146.83L242.44 145.435L240.025 143.717L240.693 142.677L243.1 144.515L243.262 142Z" fill="white"/>
<path d="M163.72 151.3V158.8C163.723 159.496 163.58 160.186 163.302 160.824C163.023 161.462 162.614 162.034 162.1 162.505C161.587 162.976 160.982 163.334 160.322 163.557C159.663 163.78 158.964 163.863 158.27 163.8C150.577 162.964 143.188 160.336 136.695 156.125C130.655 152.287 125.534 147.166 121.695 141.125C117.47 134.603 114.841 127.178 114.02 119.45C113.958 118.759 114.04 118.062 114.262 117.404C114.483 116.746 114.839 116.142 115.307 115.629C115.775 115.117 116.345 114.707 116.98 114.427C117.615 114.146 118.301 114.001 118.995 114H126.495C127.709 113.988 128.885 114.418 129.805 115.209C130.725 116 131.325 117.099 131.495 118.3C131.812 120.7 132.399 123.057 133.245 125.325C133.582 126.22 133.654 127.193 133.455 128.127C133.256 129.062 132.792 129.921 132.12 130.6L128.945 133.775C132.504 140.034 137.686 145.216 143.945 148.775L147.12 145.6C147.8 144.928 148.658 144.465 149.593 144.265C150.528 144.066 151.5 144.139 152.395 144.475C154.663 145.322 157.02 145.909 159.42 146.225C160.635 146.397 161.744 147.008 162.537 147.944C163.329 148.88 163.751 150.074 163.72 151.3Z" stroke="#2997FF" stroke-linecap="round" stroke-linejoin="round"/>
</svg>
