<svg width="290" height="290" viewBox="0 0 290 290" fill="none" xmlns="http://www.w3.org/2000/svg">
<path d="M263.483 121.334H253.75V120.833H145V169.166H213.289C203.327 197.302 176.556 217.499 145 217.499C104.962 217.499 72.5003 185.037 72.5003 144.999C72.5003 104.961 104.962 72.4993 145 72.4993C163.482 72.4993 180.296 79.4714 193.098 90.86L227.276 56.6823C205.695 36.5696 176.828 24.166 145 24.166C78.2701 24.166 24.167 78.2691 24.167 144.999C24.167 211.73 78.2701 265.833 145 265.833C211.731 265.833 265.834 211.73 265.834 144.999C265.834 136.897 265 128.989 263.483 121.334Z" fill="#FFC107"/>
<path d="M38.0986 88.7575L77.7984 117.872C88.5405 91.2769 114.556 72.4994 145 72.4994C163.481 72.4994 180.295 79.4714 193.098 90.86L227.275 56.6823C205.694 36.5696 176.827 24.166 145 24.166C98.5878 24.166 58.3382 50.3687 38.0986 88.7575Z" fill="#FF3D00"/>
<path d="M145 265.833C176.211 265.833 204.57 253.888 226.012 234.464L188.614 202.818C176.075 212.354 160.753 217.512 145 217.499C113.571 217.499 86.8848 197.459 76.8315 169.492L37.4277 199.852C57.4256 238.983 98.0377 265.833 145 265.833Z" fill="#4CAF50"/>
<path d="M263.483 121.335H253.75V120.834H145V169.167H213.289C208.523 182.558 199.939 194.259 188.597 202.825L188.615 202.813L226.013 234.46C223.366 236.864 265.833 205.417 265.833 145.001C265.833 136.899 265 128.99 263.483 121.335Z" fill="#1976D2"/>
</svg>
